<svg xmlns="http://www.w3.org/2000/svg" xmlns:xlink="http://www.w3.org/1999/xlink" version="1.1" data-diagram-type="ACTIVITY" style="width:1787px;height:1178px;background:#FFFFFF;" width="1787px" height="1178px" viewBox="0 0 1787 1178" zoomAndPan="magnify" preserveAspectRatio="none" contentStyleType="text/css"><?plantuml 1.2026.8?><defs/><g font-family="sans-serif" lengthAdjust="spacing"><rect x="20" y="16" width="1740.008" height="12.649" fill="none" style="stroke:none;"/><ellipse cx="252.633" cy="43.649" rx="10" ry="10" fill="#222" style="stroke:#222;stroke-width:1;"/><rect x="166.513" y="73.649" width="172.238" height="45.298" fill="#FFF" style="stroke:#1E3A8A;stroke-width:0.5;" rx="12.5" ry="12.5"/><text x="176.513" y="93.967" fill="#000" font-size="11" textLength="152.238" font-family="Arial">Navigate to Monthly Availability</text><text x="176.513" y="106.616" fill="#000" font-size="11" textLength="78.257" font-family="Arial">Submission grid</text><rect x="169.564" y="138.947" width="166.137" height="45.298" fill="#FFF" style="stroke:#1E3A8A;stroke-width:0.5;" rx="12.5" ry="12.5"/><text x="179.564" y="159.265" fill="#000" font-size="11" textLength="146.137" font-family="Arial">Select target upcoming month</text><text x="179.564" y="171.914" fill="#000" font-size="11" textLength="108.238" font-family="Arial">(up to 1 month ahead)</text><rect x="163.135" y="204.245" width="178.995" height="45.298" fill="#FFF" style="stroke:#1E3A8A;stroke-width:0.5;" rx="12.5" ry="12.5"/><text x="173.135" y="224.563" fill="#000" font-size="11" textLength="158.995" font-family="Arial">Configure available / unavailable</text><text x="173.135" y="237.211" fill="#000" font-size="11" textLength="83.134" font-family="Arial">30-min time slots</text><rect x="152.151" y="269.542" width="200.963" height="45.298" fill="#FFF" style="stroke:#1E3A8A;stroke-width:0.5;" rx="12.5" ry="12.5"/><text x="162.151" y="289.86" fill="#000" font-size="11" textLength="140.024" font-family="Arial">Input weekly job preferences</text><text x="162.151" y="302.509" fill="#000" font-size="11" textLength="180.963" font-family="Arial">(Back-to-back, preferred days/studio)</text><rect x="180.656" y="334.84" width="143.954" height="32.649" fill="#FFF" style="stroke:#1E3A8A;stroke-width:0.5;" rx="12.5" ry="12.5"/><text x="190.656" y="355.158" fill="#000" font-size="11" textLength="123.954" font-family="Arial">Click "Submit Availability"</text><rect x="26" y="692.681" width="143.116" height="57.947" fill="#FFF" style="stroke:#1E3A8A;stroke-width:0.5;" rx="12.5" ry="12.5"/><text x="36" y="712.999" fill="#000" font-size="11" textLength="102.094" font-family="Arial">Display confirmation:</text><text x="36" y="725.647" fill="#000" font-size="11" textLength="123.116" font-family="Arial">"Availability confirmed for</text><text x="36" y="738.296" fill="#000" font-size="11" textLength="85.229" font-family="Arial">upcoming month"</text><ellipse cx="97.558" cy="794.276" rx="11" ry="11" fill="none" style="stroke:#222;stroke-width:1;"/><ellipse cx="97.558" cy="794.276" rx="6" ry="6" fill="#222" style="stroke:#222;stroke-width:1;"/><rect x="233.298" y="945.223" width="151.946" height="45.298" fill="#FFF" style="stroke:#1E3A8A;stroke-width:0.5;" rx="12.5" ry="12.5"/><text x="243.298" y="965.541" fill="#000" font-size="11" textLength="98.441" font-family="Arial">Receive notification:</text><text x="243.298" y="978.19" fill="#000" font-size="11" textLength="131.946" font-family="Arial">"Late availability approved"</text><rect x="395.244" y="957.872" width="141.306" height="57.947" fill="#FFF" style="stroke:#1E3A8A;stroke-width:0.5;" rx="12.5" ry="12.5"/><text x="405.244" y="978.19" fill="#000" font-size="11" textLength="98.441" font-family="Arial">Receive notification:</text><text x="405.244" y="990.839" fill="#000" font-size="11" textLength="121.306" font-family="Arial">"Late availability rejected</text><text x="405.244" y="1003.488" fill="#000" font-size="11" textLength="92.56" font-family="Arial">- contact manager"</text><line x1="20" y1="16" x2="20" y2="1157.117" style="stroke:#000;stroke-width:1.5;"/><rect x="688.49" y="387.489" width="171.003" height="32.649" fill="#FFF" style="stroke:#1E3A8A;stroke-width:0.5;" rx="12.5" ry="12.5"/><text x="698.49" y="407.807" fill="#000" font-size="11" textLength="151.003" font-family="Arial">Capture submission timestamp</text><polygon points="695.423,440.138,852.56,440.138,864.56,452.138,852.56,464.138,695.423,464.138,683.423,452.138,695.423,440.138" fill="#FFF" style="stroke:#1E3A8A;stroke-width:0.5;stroke-linejoin:miter;stroke-miterlimit:10;"/><text x="695.423" y="456.132" fill="#000" font-size="11" textLength="157.137" font-family="Arial">Timestamp &lt;= 19th 23:59 SGT?</text><text x="610.07" y="449.807" fill="#000" font-size="11" textLength="73.353" font-family="Arial">[yes - Nominal]</text><text x="864.56" y="449.807" fill="#000" font-size="11" textLength="109.447" font-family="Arial">[no - Late Submission]</text><rect x="557.558" y="484.138" width="122.717" height="45.298" fill="#FFF" style="stroke:#1E3A8A;stroke-width:0.5;" rx="12.5" ry="12.5"/><text x="567.558" y="504.456" fill="#000" font-size="11" textLength="102.717" font-family="Arial">Set availability status</text><text x="567.558" y="517.105" fill="#000" font-size="11" textLength="93.419" font-family="Arial">to "Auto-Approved"</text><rect x="546.55" y="562.085" width="144.733" height="45.298" fill="#FFF" style="stroke:#1E3A8A;stroke-width:0.5;" rx="12.5" ry="12.5"/><text x="556.55" y="582.403" fill="#000" font-size="11" textLength="114.329" font-family="Arial">Lock availability grid for</text><text x="556.55" y="595.052" fill="#000" font-size="11" textLength="124.733" font-family="Arial">monthly roster generation</text><rect x="864.036" y="484.138" width="130.059" height="32.649" fill="#FFF" style="stroke:#1E3A8A;stroke-width:0.5;" rx="12.5" ry="12.5"/><text x="874.036" y="504.456" fill="#000" font-size="11" textLength="110.059" font-family="Arial">Lock direct grid editing</text><rect x="836.587" y="549.436" width="184.957" height="45.298" fill="#FFF" style="stroke:#1E3A8A;stroke-width:0.5;" rx="12.5" ry="12.5"/><text x="846.587" y="569.754" fill="#000" font-size="11" textLength="94.15" font-family="Arial">Flag submission as</text><text x="846.587" y="582.403" fill="#000" font-size="11" textLength="164.957" font-family="Arial">"Late - Pending Manager Review"</text><rect x="853.635" y="627.383" width="150.861" height="45.298" fill="#FFF" style="stroke:#1E3A8A;stroke-width:0.5;" rx="12.5" ry="12.5"/><text x="863.635" y="647.701" fill="#000" font-size="11" textLength="120.474" font-family="Arial">Route change request to</text><text x="863.635" y="660.35" fill="#000" font-size="11" textLength="130.861" font-family="Arial">Manager Exception Queue</text><rect x="746.957" y="879.925" width="167.345" height="32.649" fill="#FFF" style="stroke:#1E3A8A;stroke-width:0.5;" rx="12.5" ry="12.5"/><text x="756.957" y="900.243" fill="#000" font-size="11" textLength="147.345" font-family="Arial">Update master availability grid</text><rect x="974.702" y="879.925" width="105.599" height="45.298" fill="#FFF" style="stroke:#1E3A8A;stroke-width:0.5;" rx="12.5" ry="12.5"/><text x="984.702" y="900.243" fill="#000" font-size="11" textLength="81.931" font-family="Arial">Maintain existing</text><text x="984.702" y="912.892" fill="#000" font-size="11" textLength="85.599" font-family="Arial">locked availability</text><line x1="540.55" y1="16" x2="540.55" y2="1157.117" style="stroke:#000;stroke-width:1.5;"/><rect x="1090.301" y="640.032" width="196.081" height="32.649" fill="#FFF" style="stroke:#1E3A8A;stroke-width:0.5;" rx="12.5" ry="12.5"/><text x="1100.301" y="660.35" fill="#000" font-size="11" textLength="176.081" font-family="Arial">Persist approved availability records</text><rect x="1270.733" y="1069.819" width="145.367" height="45.298" fill="#FFF" style="stroke:#1E3A8A;stroke-width:0.5;" rx="12.5" ry="12.5"/><text x="1280.733" y="1090.137" fill="#000" font-size="11" textLength="125.367" font-family="Arial">Log adjudication outcome</text><text x="1280.733" y="1102.786" fill="#000" font-size="11" textLength="122.273" font-family="Arial">in Compliance Audit Trail</text><ellipse cx="1343.416" cy="1146.117" rx="11" ry="11" fill="none" style="stroke:#222;stroke-width:1;"/><ellipse cx="1343.416" cy="1146.117" rx="6" ry="6" fill="#222" style="stroke:#222;stroke-width:1;"/><line x1="1084.301" y1="16" x2="1084.301" y2="1157.117" style="stroke:#000;stroke-width:1.5;"/><rect x="1518.423" y="692.681" width="147.789" height="45.298" fill="#FFF" style="stroke:#1E3A8A;stroke-width:0.5;" rx="12.5" ry="12.5"/><text x="1528.423" y="712.999" fill="#000" font-size="11" textLength="127.789" font-family="Arial">Inspect late availability diff</text><text x="1528.423" y="725.647" fill="#000" font-size="11" textLength="123.492" font-family="Arial">against preliminary roster</text><polygon points="1515.882,770.627,1668.754,770.627,1680.754,782.627,1668.754,794.627,1515.882,794.627,1503.882,782.627,1515.882,770.627" fill="#FFF" style="stroke:#1E3A8A;stroke-width:0.5;stroke-linejoin:miter;stroke-miterlimit:10;"/><text x="1515.882" y="786.621" fill="#000" font-size="11" textLength="152.872" font-family="Arial">Roster disruption manageable?</text><text x="1480.652" y="780.296" fill="#000" font-size="11" textLength="23.23" font-family="Arial">[yes]</text><text x="1680.754" y="780.296" fill="#000" font-size="11" textLength="18.348" font-family="Arial">[no]</text><rect x="1426.099" y="814.627" width="135.564" height="45.298" fill="#FFF" style="stroke:#1E3A8A;stroke-width:0.5;" rx="12.5" ry="12.5"/><text x="1436.099" y="834.945" fill="#000" font-size="11" textLength="115.564" font-family="Arial">Approve late availability</text><text x="1436.099" y="847.594" fill="#000" font-size="11" textLength="113.121" font-family="Arial">with logged justification</text><rect x="1626.028" y="814.627" width="129.452" height="45.298" fill="#FFF" style="stroke:#1E3A8A;stroke-width:0.5;" rx="12.5" ry="12.5"/><text x="1636.028" y="834.945" fill="#000" font-size="11" textLength="96.615" font-family="Arial">Reject late changes</text><text x="1636.028" y="847.594" fill="#000" font-size="11" textLength="109.452" font-family="Arial">with explanatory notes</text><polygon points="1592.318,1025.819,1604.318,1037.819,1592.318,1049.819,1580.318,1037.819,1592.318,1025.819" fill="#FFF" style="stroke:#1E3A8A;stroke-width:0.5;stroke-linejoin:miter;stroke-miterlimit:10;"/><line x1="1420.099" y1="16" x2="1420.099" y2="1157.117" style="stroke:#000;stroke-width:1.5;"/><line x1="1759.48" y1="16" x2="1759.48" y2="1157.117" style="stroke:#000;stroke-width:1.5;"/><line x1="252.633" y1="53.649" x2="252.633" y2="73.649" style="stroke:#181818;stroke-width:1;"/><polygon points="248.633,63.649,252.633,73.649,256.633,63.649,252.633,67.649" fill="#181818" style="stroke:#181818;stroke-width:1;stroke-linejoin:miter;stroke-miterlimit:10;"/><line x1="252.633" y1="118.947" x2="252.633" y2="138.947" style="stroke:#181818;stroke-width:1;"/><polygon points="248.633,128.947,252.633,138.947,256.633,128.947,252.633,132.947" fill="#181818" style="stroke:#181818;stroke-width:1;stroke-linejoin:miter;stroke-miterlimit:10;"/><line x1="252.633" y1="184.245" x2="252.633" y2="204.245" style="stroke:#181818;stroke-width:1;"/><polygon points="248.633,194.245,252.633,204.245,256.633,194.245,252.633,198.245" fill="#181818" style="stroke:#181818;stroke-width:1;stroke-linejoin:miter;stroke-miterlimit:10;"/><line x1="252.633" y1="249.542" x2="252.633" y2="269.542" style="stroke:#181818;stroke-width:1;"/><polygon points="248.633,259.542,252.633,269.542,256.633,259.542,252.633,263.542" fill="#181818" style="stroke:#181818;stroke-width:1;stroke-linejoin:miter;stroke-miterlimit:10;"/><line x1="252.633" y1="314.84" x2="252.633" y2="334.84" style="stroke:#181818;stroke-width:1;"/><polygon points="248.633,324.84,252.633,334.84,256.633,324.84,252.633,328.84" fill="#181818" style="stroke:#181818;stroke-width:1;stroke-linejoin:miter;stroke-miterlimit:10;"/><line x1="97.558" y1="750.627" x2="97.558" y2="783.276" style="stroke:#181818;stroke-width:1;"/><polygon points="93.558,773.276,97.558,783.276,101.558,773.276,97.558,777.276" fill="#181818" style="stroke:#181818;stroke-width:1;stroke-linejoin:miter;stroke-miterlimit:10;"/><line x1="618.917" y1="529.436" x2="618.917" y2="562.085" style="stroke:#181818;stroke-width:1;"/><polygon points="614.917,552.085,618.917,562.085,622.917,552.085,618.917,556.085" fill="#181818" style="stroke:#181818;stroke-width:1;stroke-linejoin:miter;stroke-miterlimit:10;"/><line x1="929.066" y1="516.787" x2="929.066" y2="549.436" style="stroke:#181818;stroke-width:1;"/><polygon points="925.066,539.436,929.066,549.436,933.066,539.436,929.066,543.436" fill="#181818" style="stroke:#181818;stroke-width:1;stroke-linejoin:miter;stroke-miterlimit:10;"/><line x1="929.066" y1="594.734" x2="929.066" y2="627.383" style="stroke:#181818;stroke-width:1;"/><polygon points="925.066,617.383,929.066,627.383,933.066,617.383,929.066,621.383" fill="#181818" style="stroke:#181818;stroke-width:1;stroke-linejoin:miter;stroke-miterlimit:10;"/><line x1="683.423" y1="452.138" x2="618.917" y2="452.138" style="stroke:#181818;stroke-width:1;"/><line x1="618.917" y1="452.138" x2="618.917" y2="484.138" style="stroke:#181818;stroke-width:1;"/><polygon points="614.917,474.138,618.917,484.138,622.917,474.138,618.917,478.138" fill="#181818" style="stroke:#181818;stroke-width:1;stroke-linejoin:miter;stroke-miterlimit:10;"/><line x1="864.56" y1="452.138" x2="929.066" y2="452.138" style="stroke:#181818;stroke-width:1;"/><line x1="929.066" y1="452.138" x2="929.066" y2="484.138" style="stroke:#181818;stroke-width:1;"/><polygon points="925.066,474.138,929.066,484.138,933.066,474.138,929.066,478.138" fill="#181818" style="stroke:#181818;stroke-width:1;stroke-linejoin:miter;stroke-miterlimit:10;"/><line x1="773.991" y1="420.138" x2="773.991" y2="440.138" style="stroke:#181818;stroke-width:1;"/><polygon points="769.991,430.138,773.991,440.138,777.991,430.138,773.991,434.138" fill="#181818" style="stroke:#181818;stroke-width:1;stroke-linejoin:miter;stroke-miterlimit:10;"/><line x1="1343.416" y1="1115.117" x2="1343.416" y2="1135.117" style="stroke:#181818;stroke-width:1;"/><polygon points="1339.416,1125.117,1343.416,1135.117,1347.416,1125.117,1343.416,1129.117" fill="#181818" style="stroke:#181818;stroke-width:1;stroke-linejoin:miter;stroke-miterlimit:10;"/><line x1="1503.882" y1="782.627" x2="1493.882" y2="782.627" style="stroke:#181818;stroke-width:1;"/><line x1="1493.882" y1="782.627" x2="1493.882" y2="814.627" style="stroke:#181818;stroke-width:1;"/><polygon points="1489.882,804.627,1493.882,814.627,1497.882,804.627,1493.882,808.627" fill="#181818" style="stroke:#181818;stroke-width:1;stroke-linejoin:miter;stroke-miterlimit:10;"/><line x1="1680.754" y1="782.627" x2="1690.754" y2="782.627" style="stroke:#181818;stroke-width:1;"/><line x1="1690.754" y1="782.627" x2="1690.754" y2="814.627" style="stroke:#181818;stroke-width:1;"/><polygon points="1686.754,804.627,1690.754,814.627,1694.754,804.627,1690.754,808.627" fill="#181818" style="stroke:#181818;stroke-width:1;stroke-linejoin:miter;stroke-miterlimit:10;"/><line x1="1592.318" y1="737.979" x2="1592.318" y2="770.627" style="stroke:#181818;stroke-width:1;"/><polygon points="1588.318,760.627,1592.318,770.627,1596.318,760.627,1592.318,764.627" fill="#181818" style="stroke:#181818;stroke-width:1;stroke-linejoin:miter;stroke-miterlimit:10;"/><line x1="252.633" y1="367.489" x2="252.633" y2="372.489" style="stroke:#181818;stroke-width:1;"/><line x1="252.633" y1="372.489" x2="773.991" y2="372.489" style="stroke:#181818;stroke-width:1;"/><line x1="773.991" y1="372.489" x2="773.991" y2="387.489" style="stroke:#181818;stroke-width:1;"/><polygon points="769.991,377.489,773.991,387.489,777.991,377.489,773.991,381.489" fill="#181818" style="stroke:#181818;stroke-width:1;stroke-linejoin:miter;stroke-miterlimit:10;"/><line x1="618.917" y1="607.383" x2="618.917" y2="622.532" style="stroke:#181818;stroke-width:1;"/><line x1="618.917" y1="622.532" x2="1188.342" y2="622.532" style="stroke:#181818;stroke-width:1;"/><line x1="1188.342" y1="622.532" x2="1188.342" y2="640.032" style="stroke:#181818;stroke-width:1;"/><polygon points="1184.342,630.032,1188.342,640.032,1192.342,630.032,1188.342,634.032" fill="#181818" style="stroke:#181818;stroke-width:1;stroke-linejoin:miter;stroke-miterlimit:10;"/><line x1="1188.342" y1="672.681" x2="1188.342" y2="677.681" style="stroke:#181818;stroke-width:1;"/><line x1="1188.342" y1="677.681" x2="97.558" y2="677.681" style="stroke:#181818;stroke-width:1;"/><line x1="97.558" y1="677.681" x2="97.558" y2="692.681" style="stroke:#181818;stroke-width:1;"/><polygon points="93.558,682.681,97.558,692.681,101.558,682.681,97.558,686.681" fill="#181818" style="stroke:#181818;stroke-width:1;stroke-linejoin:miter;stroke-miterlimit:10;"/><line x1="929.066" y1="672.681" x2="929.066" y2="677.681" style="stroke:#181818;stroke-width:1;"/><line x1="929.066" y1="677.681" x2="1592.318" y2="677.681" style="stroke:#181818;stroke-width:1;"/><line x1="1592.318" y1="677.681" x2="1592.318" y2="692.681" style="stroke:#181818;stroke-width:1;"/><polygon points="1588.318,682.681,1592.318,692.681,1596.318,682.681,1592.318,686.681" fill="#181818" style="stroke:#181818;stroke-width:1;stroke-linejoin:miter;stroke-miterlimit:10;"/><line x1="1493.882" y1="859.925" x2="1493.882" y2="864.925" style="stroke:#181818;stroke-width:1;"/><line x1="1493.882" y1="864.925" x2="830.63" y2="864.925" style="stroke:#181818;stroke-width:1;"/><line x1="830.63" y1="864.925" x2="830.63" y2="879.925" style="stroke:#181818;stroke-width:1;"/><polygon points="826.63,869.925,830.63,879.925,834.63,869.925,830.63,873.925" fill="#181818" style="stroke:#181818;stroke-width:1;stroke-linejoin:miter;stroke-miterlimit:10;"/><line x1="830.63" y1="912.574" x2="830.63" y2="930.074" style="stroke:#181818;stroke-width:1;"/><line x1="830.63" y1="930.074" x2="309.271" y2="930.074" style="stroke:#181818;stroke-width:1;"/><line x1="309.271" y1="930.074" x2="309.271" y2="945.223" style="stroke:#181818;stroke-width:1;"/><polygon points="305.271,935.223,309.271,945.223,313.271,935.223,309.271,939.223" fill="#181818" style="stroke:#181818;stroke-width:1;stroke-linejoin:miter;stroke-miterlimit:10;"/><line x1="1690.754" y1="859.925" x2="1690.754" y2="864.925" style="stroke:#181818;stroke-width:1;"/><line x1="1690.754" y1="864.925" x2="1027.502" y2="864.925" style="stroke:#181818;stroke-width:1;"/><line x1="1027.502" y1="864.925" x2="1027.502" y2="879.925" style="stroke:#181818;stroke-width:1;"/><polygon points="1023.502,869.925,1027.502,879.925,1031.502,869.925,1027.502,873.925" fill="#181818" style="stroke:#181818;stroke-width:1;stroke-linejoin:miter;stroke-miterlimit:10;"/><line x1="1027.502" y1="925.223" x2="1027.502" y2="940.372" style="stroke:#181818;stroke-width:1;"/><line x1="1027.502" y1="940.372" x2="465.897" y2="940.372" style="stroke:#181818;stroke-width:1;"/><line x1="465.897" y1="940.372" x2="465.897" y2="957.872" style="stroke:#181818;stroke-width:1;"/><polygon points="461.897,947.872,465.897,957.872,469.897,947.872,465.897,951.872" fill="#181818" style="stroke:#181818;stroke-width:1;stroke-linejoin:miter;stroke-miterlimit:10;"/><line x1="309.271" y1="990.521" x2="309.271" y2="1037.819" style="stroke:#181818;stroke-width:1;"/><line x1="309.271" y1="1037.819" x2="1580.318" y2="1037.819" style="stroke:#181818;stroke-width:1;"/><polygon points="1570.318,1033.819,1580.318,1037.819,1570.318,1041.819,1574.318,1037.819" fill="#181818" style="stroke:#181818;stroke-width:1;stroke-linejoin:miter;stroke-miterlimit:10;"/><line x1="465.897" y1="1015.819" x2="465.897" y2="1019.819" style="stroke:#181818;stroke-width:1;"/><line x1="465.897" y1="1019.819" x2="1622.318" y2="1019.819" style="stroke:#181818;stroke-width:1;"/><line x1="1622.318" y1="1019.819" x2="1622.318" y2="1037.819" style="stroke:#181818;stroke-width:1;"/><line x1="1622.318" y1="1037.819" x2="1604.318" y2="1037.819" style="stroke:#181818;stroke-width:1;"/><polygon points="1614.318,1033.819,1604.318,1037.819,1614.318,1041.819,1610.318,1037.819" fill="#181818" style="stroke:#181818;stroke-width:1;stroke-linejoin:miter;stroke-miterlimit:10;"/><line x1="1592.318" y1="1049.819" x2="1592.318" y2="1054.819" style="stroke:#181818;stroke-width:1;"/><line x1="1592.318" y1="1054.819" x2="1343.416" y2="1054.819" style="stroke:#181818;stroke-width:1;"/><line x1="1343.416" y1="1054.819" x2="1343.416" y2="1069.819" style="stroke:#181818;stroke-width:1;"/><polygon points="1339.416,1059.819,1343.416,1069.819,1347.416,1059.819,1343.416,1063.819" fill="#181818" style="stroke:#181818;stroke-width:1;stroke-linejoin:miter;stroke-miterlimit:10;"/><text x="260.099" y="26.318" fill="#000" font-size="11" textLength="40.353" font-family="Arial">Teacher</text><text x="794.089" y="26.318" fill="#000" font-size="11" textLength="36.674" font-family="Arial">System</text><text x="1228.656" y="26.318" fill="#000" font-size="11" textLength="47.088" font-family="Arial">Database</text><text x="1568.082" y="26.318" fill="#000" font-size="11" textLength="43.415" font-family="Arial">Manager</text><?plantuml-src hLHDRzD04BtlhnY50wr4L4A5H5CG2Yr5IBI2ffmGXubtx6oxtZNxaH88_vtPjUF45772KX8vipFptfitw--KQT1X3P9AZ3fSM1Eki2QOEOLQ-B_5v-e7mMIo5yGYg9KAQ_WfW9ytMDnLpaOZpwos3XvTvAUDMIV9TVzFtXxFNip4Bo4sDuJ5ajn6-80kYEaLhbI5WI1OkEIcIxs6sGgLneNIt4hCuw9MtYjhe79Adehfd3GL0JY_eW2nAMojJ0LroXO7iKcb9kqhu99G7dBIcJMbgg8ZmBQw9ZY2QFetSVnqp7KWA5R5QniyPxqtJGnmJtJ7i6xj0Xf79Jao1NbnaFYFWnql-FT95t8aGUBQ7_aGfRAvjLR57OmoaJ0WDpfbHUPh7wZUy3biGWBeTumJ61QgRlYWAk7WPliEBr_1v8G9FZkUFZ-1-RkRruSGbcJWuCkQF8pXAgc2-kjX7WUB5hRCSslWCY7w76IzHhF8H6PDu-oA9EFAIHyi0nzafH50QLsErzsyd6K63Yeov30mxZPzSuu15-XfqrRxICuhpp2wBiFAZWgsZEzIUvlap7Fb6urhAD8GNPrxJ7Dej2_dDauxY4DtTBnyi8qWxOd5CfQr-f0Ck3DQfra_cPqMKhbalQm2IHMuSYVLXSPgVtBOIZlAfSVmaOnCC2xHOCLQNTDAqVrMvsiR-LInH5CH2_4jyf1vAZcupNZxlQ0c4OTFaI9rEdNH3kDxuvk4JwUc0tMbAijy1YjKXgkpMxLA3d7R-RKLaykkstbAvLriMzQvJLgJWSqweNBlpZiFU_T7xXNxLTkguldSHXzKgOezkpoGF9VztCXKiCOCwO4Nzr87bcbbfO8KGp9srslQXzlH32hYqF-zHVPu3XNlsjpsehSpz4FEz9tTQp1OrfgnaFyNuKkUJ-0FP_6oi6Vwa6O7_h4r_vU-oqH8zcV6QQC2t_gT0TnM63PpATflyHWkYMzYRYDfkfNmgAq53OQbpxjjLkaKttUxMu5tgWAKjtnHjkY0zu3tbGJJFxDrenNoJGipFX3WnZ7KKv6MzpS0?></g></svg>